<svg xmlns="http://www.w3.org/2000/svg" width="40" height="40" viewBox="0 0 40 40">
  <defs>
    <linearGradient id="blueGradient" x1="0%" y1="0%" x2="100%" y2="100%">
      <stop offset="0%" style="stop-color:#3B82F6;stop-opacity:1" />
      <stop offset="100%" style="stop-color:#1E40AF;stop-opacity:1" />
    </linearGradient>
  </defs>
  <rect width="40" height="40" rx="8" fill="url(#blueGradient)"/>
  <path d="M12 14h16c1.1 0 2 .9 2 2v12c0 1.1-.9 2-2 2H12c-1.1 0-2-.9-2-2V16c0-1.1.9-2 2-2z" fill="white" opacity="0.9"/>
  <path d="M14 18h12v2H14v-2zm0 4h8v2h-8v-2zm0 4h10v2H14v-2z" fill="#1E40AF"/>
  <circle cx="32" cy="12" r="3" fill="#F59E0B"/>
  <text x="32" y="15" text-anchor="middle" font-family="Arial, sans-serif" font-size="6" font-weight="bold" fill="white">₿</text>
</svg>