<svg xmlns="http://www.w3.org/2000/svg" width="40" height="40" viewBox="0 0 40 40">
  <defs>
    <linearGradient id="phoenixGradient" x1="0%" y1="0%" x2="100%" y2="100%">
      <stop offset="0%" style="stop-color:#F97316;stop-opacity:1" />
      <stop offset="100%" style="stop-color:#EA580C;stop-opacity:1" />
    </linearGradient>
  </defs>
  <rect width="40" height="40" rx="8" fill="url(#phoenixGradient)"/>
  <path d="M20 8c-2 0-4 1-5 3-1 2 0 4 2 5l3 2c1 1 1 2 0 3l-2 2c-1 1-1 3 0 4s3 1 4 0l2-2c1-1 2-1 3 0l2 2c1 1 3 1 4 0s1-3 0-4l-2-2c-1-1-1-2 0-3l3-2c2-1 3-3 2-5-1-2-3-3-5-3-1 0-2 0-3 1l-4-1z" fill="white" opacity="0.9"/>
  <circle cx="20" cy="20" r="3" fill="#EA580C"/>
</svg>