<svg xmlns="http://www.w3.org/2000/svg" width="40" height="40" viewBox="0 0 40 40">
  <defs>
    <linearGradient id="sparrowGradient" x1="0%" y1="0%" x2="100%" y2="100%">
      <stop offset="0%" style="stop-color:#64748B;stop-opacity:1" />
      <stop offset="100%" style="stop-color:#475569;stop-opacity:1" />
    </linearGradient>
  </defs>
  <rect width="40" height="40" rx="8" fill="url(#sparrowGradient)"/>
  <path d="M15 18c0-2 1-4 3-5s4-1 6 0c2 1 3 3 3 5v4c0 2-1 4-3 5s-4 1-6 0c-2-1-3-3-3-5v-4z" fill="white" opacity="0.9"/>
  <path d="M18 16l4 2-4 2v-1l2-1-2-1v-1z" fill="#475569"/>
  <circle cx="22" cy="18" r="1" fill="#475569"/>
</svg>